<mxfile host="Electron" agent="Mozilla/5.0 (Windows NT 10.0; Win64; x64) AppleWebKit/537.36 (KHTML, like Gecko) draw.io/27.0.9 Chrome/134.0.6998.205 Electron/35.4.0 Safari/537.36" version="27.0.9">
  <diagram name="Страница — 1" id="iXOm4uEFBJscFxBkoZ2S">
    <mxGraphModel dx="2398" dy="2002" grid="1" gridSize="10" guides="1" tooltips="1" connect="1" arrows="1" fold="1" page="1" pageScale="1" pageWidth="827" pageHeight="1169" math="0" shadow="0">
      <root>
        <mxCell id="0" />
        <mxCell id="1" parent="0" />
        <mxCell id="frBV6I6ec1djIr-fkiNT-1" value="" style="rounded=1;whiteSpace=wrap;html=1;fillColor=#E6E6E6;" parent="1" vertex="1">
          <mxGeometry x="-800" y="-1070" width="120" height="60" as="geometry" />
        </mxCell>
        <mxCell id="frBV6I6ec1djIr-fkiNT-2" value="&lt;b&gt;&lt;font style=&quot;font-size: 14px;&quot;&gt;Frontend&lt;/font&gt;&lt;/b&gt;" style="text;html=1;align=center;verticalAlign=middle;whiteSpace=wrap;rounded=0;" parent="1" vertex="1">
          <mxGeometry x="-770" y="-1060" width="60" height="30" as="geometry" />
        </mxCell>
        <mxCell id="frBV6I6ec1djIr-fkiNT-5" value="" style="swimlane;startSize=0;fillColor=#999999;" parent="1" vertex="1">
          <mxGeometry x="-640" y="-1120" width="560" height="430" as="geometry" />
        </mxCell>
        <mxCell id="frBV6I6ec1djIr-fkiNT-6" value="&lt;b&gt;&lt;font style=&quot;font-size: 18px;&quot;&gt;Backend&lt;/font&gt;&lt;/b&gt;" style="text;html=1;align=center;verticalAlign=middle;whiteSpace=wrap;rounded=0;" parent="frBV6I6ec1djIr-fkiNT-5" vertex="1">
          <mxGeometry x="20" y="5" width="60" height="30" as="geometry" />
        </mxCell>
        <mxCell id="frBV6I6ec1djIr-fkiNT-7" value="" style="rounded=1;whiteSpace=wrap;html=1;fillColor=#E6E6E6;" parent="frBV6I6ec1djIr-fkiNT-5" vertex="1">
          <mxGeometry x="90" y="40" width="120" height="60" as="geometry" />
        </mxCell>
        <mxCell id="frBV6I6ec1djIr-fkiNT-34" style="edgeStyle=orthogonalEdgeStyle;rounded=0;orthogonalLoop=1;jettySize=auto;html=1;exitX=0.5;exitY=1;exitDx=0;exitDy=0;entryX=0.5;entryY=1;entryDx=0;entryDy=0;" parent="frBV6I6ec1djIr-fkiNT-5" source="frBV6I6ec1djIr-fkiNT-8" target="frBV6I6ec1djIr-fkiNT-8" edge="1">
          <mxGeometry relative="1" as="geometry" />
        </mxCell>
        <mxCell id="frBV6I6ec1djIr-fkiNT-8" value="" style="rounded=1;whiteSpace=wrap;html=1;fillColor=#E6E6E6;" parent="frBV6I6ec1djIr-fkiNT-5" vertex="1">
          <mxGeometry x="90" y="185" width="120" height="60" as="geometry" />
        </mxCell>
        <mxCell id="frBV6I6ec1djIr-fkiNT-9" value="" style="rounded=1;whiteSpace=wrap;html=1;fillColor=#E6E6E6;" parent="frBV6I6ec1djIr-fkiNT-5" vertex="1">
          <mxGeometry x="90" y="350" width="120" height="60" as="geometry" />
        </mxCell>
        <mxCell id="frBV6I6ec1djIr-fkiNT-10" value="Controller" style="text;html=1;align=center;verticalAlign=middle;whiteSpace=wrap;rounded=0;" parent="frBV6I6ec1djIr-fkiNT-5" vertex="1">
          <mxGeometry x="120" y="55" width="60" height="30" as="geometry" />
        </mxCell>
        <mxCell id="frBV6I6ec1djIr-fkiNT-11" value="Service" style="text;html=1;align=center;verticalAlign=middle;whiteSpace=wrap;rounded=0;" parent="frBV6I6ec1djIr-fkiNT-5" vertex="1">
          <mxGeometry x="120" y="195" width="60" height="40" as="geometry" />
        </mxCell>
        <mxCell id="frBV6I6ec1djIr-fkiNT-12" value="Repository" style="text;html=1;align=center;verticalAlign=middle;whiteSpace=wrap;rounded=0;" parent="frBV6I6ec1djIr-fkiNT-5" vertex="1">
          <mxGeometry x="120" y="360" width="60" height="30" as="geometry" />
        </mxCell>
        <mxCell id="frBV6I6ec1djIr-fkiNT-13" value="" style="rounded=1;whiteSpace=wrap;html=1;fillColor=#E6E6E6;" parent="frBV6I6ec1djIr-fkiNT-5" vertex="1">
          <mxGeometry x="390" y="110" width="120" height="60" as="geometry" />
        </mxCell>
        <mxCell id="frBV6I6ec1djIr-fkiNT-32" style="edgeStyle=orthogonalEdgeStyle;rounded=0;orthogonalLoop=1;jettySize=auto;html=1;exitX=1;exitY=0.5;exitDx=0;exitDy=0;entryX=0;entryY=0.5;entryDx=0;entryDy=0;" parent="frBV6I6ec1djIr-fkiNT-5" source="frBV6I6ec1djIr-fkiNT-14" target="frBV6I6ec1djIr-fkiNT-13" edge="1">
          <mxGeometry relative="1" as="geometry" />
        </mxCell>
        <mxCell id="frBV6I6ec1djIr-fkiNT-14" value="" style="rounded=1;whiteSpace=wrap;html=1;fillColor=#E6E6E6;" parent="frBV6I6ec1djIr-fkiNT-5" vertex="1">
          <mxGeometry x="244" y="110" width="120" height="60" as="geometry" />
        </mxCell>
        <mxCell id="frBV6I6ec1djIr-fkiNT-15" value="" style="rounded=1;whiteSpace=wrap;html=1;fillColor=#E6E6E6;" parent="frBV6I6ec1djIr-fkiNT-5" vertex="1">
          <mxGeometry x="425" y="20" width="120" height="60" as="geometry" />
        </mxCell>
        <mxCell id="frBV6I6ec1djIr-fkiNT-16" value="" style="rounded=1;whiteSpace=wrap;html=1;fillColor=#E6E6E6;" parent="frBV6I6ec1djIr-fkiNT-5" vertex="1">
          <mxGeometry x="244" y="185" width="120" height="60" as="geometry" />
        </mxCell>
        <mxCell id="frBV6I6ec1djIr-fkiNT-17" value="" style="rounded=1;whiteSpace=wrap;html=1;fillColor=#E6E6E6;" parent="frBV6I6ec1djIr-fkiNT-5" vertex="1">
          <mxGeometry x="244" y="260" width="120" height="60" as="geometry" />
        </mxCell>
        <mxCell id="frBV6I6ec1djIr-fkiNT-18" value="Operation" style="text;html=1;align=center;verticalAlign=middle;whiteSpace=wrap;rounded=0;" parent="frBV6I6ec1djIr-fkiNT-5" vertex="1">
          <mxGeometry x="274" y="125" width="60" height="30" as="geometry" />
        </mxCell>
        <mxCell id="frBV6I6ec1djIr-fkiNT-20" value="Model" style="text;html=1;align=center;verticalAlign=middle;whiteSpace=wrap;rounded=0;" parent="frBV6I6ec1djIr-fkiNT-5" vertex="1">
          <mxGeometry x="455" y="35" width="60" height="30" as="geometry" />
        </mxCell>
        <mxCell id="frBV6I6ec1djIr-fkiNT-19" value="Mapper" style="text;html=1;align=center;verticalAlign=middle;whiteSpace=wrap;rounded=0;" parent="frBV6I6ec1djIr-fkiNT-5" vertex="1">
          <mxGeometry x="274" y="200" width="60" height="30" as="geometry" />
        </mxCell>
        <mxCell id="frBV6I6ec1djIr-fkiNT-21" value="Logger" style="text;html=1;align=center;verticalAlign=middle;whiteSpace=wrap;rounded=0;" parent="frBV6I6ec1djIr-fkiNT-5" vertex="1">
          <mxGeometry x="425" y="125" width="50" height="30" as="geometry" />
        </mxCell>
        <mxCell id="frBV6I6ec1djIr-fkiNT-22" value="Converter" style="text;html=1;align=center;verticalAlign=middle;whiteSpace=wrap;rounded=0;" parent="frBV6I6ec1djIr-fkiNT-5" vertex="1">
          <mxGeometry x="274" y="275" width="60" height="30" as="geometry" />
        </mxCell>
        <mxCell id="frBV6I6ec1djIr-fkiNT-23" value="Exception" style="rounded=1;whiteSpace=wrap;html=1;fillColor=#E6E6E6;" parent="frBV6I6ec1djIr-fkiNT-5" vertex="1">
          <mxGeometry x="270" y="20" width="120" height="60" as="geometry" />
        </mxCell>
        <mxCell id="frBV6I6ec1djIr-fkiNT-26" value="" style="rounded=1;whiteSpace=wrap;html=1;fillColor=#E6E6E6;" parent="frBV6I6ec1djIr-fkiNT-5" vertex="1">
          <mxGeometry x="244" y="350" width="120" height="60" as="geometry" />
        </mxCell>
        <mxCell id="frBV6I6ec1djIr-fkiNT-27" value="Card storage" style="text;html=1;align=center;verticalAlign=middle;whiteSpace=wrap;rounded=0;" parent="frBV6I6ec1djIr-fkiNT-5" vertex="1">
          <mxGeometry x="274" y="360" width="60" height="30" as="geometry" />
        </mxCell>
        <mxCell id="frBV6I6ec1djIr-fkiNT-29" value="" style="endArrow=classic;html=1;rounded=0;exitX=0.5;exitY=1;exitDx=0;exitDy=0;entryX=0.5;entryY=0;entryDx=0;entryDy=0;" parent="frBV6I6ec1djIr-fkiNT-5" source="frBV6I6ec1djIr-fkiNT-7" target="frBV6I6ec1djIr-fkiNT-8" edge="1">
          <mxGeometry width="50" height="50" relative="1" as="geometry">
            <mxPoint x="180" y="250" as="sourcePoint" />
            <mxPoint x="230" y="200" as="targetPoint" />
          </mxGeometry>
        </mxCell>
        <mxCell id="frBV6I6ec1djIr-fkiNT-36" value="" style="rounded=1;whiteSpace=wrap;html=1;fillColor=#E6E6E6;" parent="frBV6I6ec1djIr-fkiNT-5" vertex="1">
          <mxGeometry x="395" y="260" width="120" height="60" as="geometry" />
        </mxCell>
        <mxCell id="frBV6I6ec1djIr-fkiNT-37" value="Service currently converter" style="text;html=1;align=center;verticalAlign=middle;whiteSpace=wrap;rounded=0;" parent="frBV6I6ec1djIr-fkiNT-5" vertex="1">
          <mxGeometry x="425" y="275" width="60" height="30" as="geometry" />
        </mxCell>
        <mxCell id="frBV6I6ec1djIr-fkiNT-41" value="&lt;b&gt;&lt;br&gt;&lt;span style=&quot;color: rgb(34, 34, 34); font-family: DDG_ProximaNova, DDG_ProximaNova_UI_0, DDG_ProximaNova_UI_1, DDG_ProximaNova_UI_2, DDG_ProximaNova_UI_3, DDG_ProximaNova_UI_4, DDG_ProximaNova_UI_5, DDG_ProximaNova_UI_6, &amp;quot;Proxima Nova&amp;quot;, -apple-system, BlinkMacSystemFont, &amp;quot;Segoe UI&amp;quot;, Roboto, Oxygen-Sans, Ubuntu, Cantarell, &amp;quot;Helvetica Neue&amp;quot;, Arial, &amp;quot;Noto Sans&amp;quot;, sans-serif, sans-serif, DDG_ProximaNova, DDG_ProximaNova_UI_0, DDG_ProximaNova_UI_1, DDG_ProximaNova_UI_2, DDG_ProximaNova_UI_3, DDG_ProximaNova_UI_4, DDG_ProximaNova_UI_5, DDG_ProximaNova_UI_6, &amp;quot;Proxima Nova&amp;quot;, -apple-system, BlinkMacSystemFont, &amp;quot;Segoe UI&amp;quot;, Roboto, Oxygen-Sans, Ubuntu, Cantarell, &amp;quot;Helvetica Neue&amp;quot;, Arial, &amp;quot;Noto Sans&amp;quot;, sans-serif; font-size: 16.4571px; font-style: normal; font-variant-ligatures: normal; font-variant-caps: normal; letter-spacing: normal; orphans: 2; text-align: start; text-indent: 0px; text-transform: none; widows: 2; word-spacing: 0px; -webkit-text-stroke-width: 0px; white-space: break-spaces; background-color: rgb(255, 255, 255); text-decoration-thickness: initial; text-decoration-style: initial; text-decoration-color: initial; float: none; display: inline !important;&quot;&gt;RESTful API&lt;/span&gt;&lt;br&gt;&lt;/b&gt;" style="text;html=1;align=center;verticalAlign=middle;whiteSpace=wrap;rounded=0;" parent="frBV6I6ec1djIr-fkiNT-5" vertex="1">
          <mxGeometry x="20" y="40" width="60" height="50" as="geometry" />
        </mxCell>
        <mxCell id="frBV6I6ec1djIr-fkiNT-42" value="" style="endArrow=classic;startArrow=classic;html=1;rounded=0;exitX=0.5;exitY=0;exitDx=0;exitDy=0;entryX=0.5;entryY=1;entryDx=0;entryDy=0;" parent="frBV6I6ec1djIr-fkiNT-5" source="frBV6I6ec1djIr-fkiNT-8" target="frBV6I6ec1djIr-fkiNT-7" edge="1">
          <mxGeometry width="50" height="50" relative="1" as="geometry">
            <mxPoint x="170" y="250" as="sourcePoint" />
            <mxPoint x="220" y="200" as="targetPoint" />
          </mxGeometry>
        </mxCell>
        <mxCell id="frBV6I6ec1djIr-fkiNT-43" value="" style="endArrow=classic;startArrow=classic;html=1;rounded=0;exitX=0.5;exitY=0;exitDx=0;exitDy=0;entryX=0.5;entryY=1;entryDx=0;entryDy=0;" parent="frBV6I6ec1djIr-fkiNT-5" source="frBV6I6ec1djIr-fkiNT-9" target="frBV6I6ec1djIr-fkiNT-8" edge="1">
          <mxGeometry width="50" height="50" relative="1" as="geometry">
            <mxPoint x="170" y="250" as="sourcePoint" />
            <mxPoint x="220" y="200" as="targetPoint" />
          </mxGeometry>
        </mxCell>
        <mxCell id="frBV6I6ec1djIr-fkiNT-44" value="" style="endArrow=classic;startArrow=classic;html=1;rounded=0;exitX=0.75;exitY=0;exitDx=0;exitDy=0;entryX=0.007;entryY=0.421;entryDx=0;entryDy=0;entryPerimeter=0;" parent="frBV6I6ec1djIr-fkiNT-5" source="frBV6I6ec1djIr-fkiNT-8" target="frBV6I6ec1djIr-fkiNT-14" edge="1">
          <mxGeometry width="50" height="50" relative="1" as="geometry">
            <mxPoint x="170" y="250" as="sourcePoint" />
            <mxPoint x="220" y="200" as="targetPoint" />
          </mxGeometry>
        </mxCell>
        <mxCell id="frBV6I6ec1djIr-fkiNT-45" value="" style="endArrow=classic;startArrow=classic;html=1;rounded=0;entryX=0.007;entryY=0.41;entryDx=0;entryDy=0;entryPerimeter=0;exitX=1.014;exitY=0.41;exitDx=0;exitDy=0;exitPerimeter=0;" parent="frBV6I6ec1djIr-fkiNT-5" source="frBV6I6ec1djIr-fkiNT-8" target="frBV6I6ec1djIr-fkiNT-16" edge="1">
          <mxGeometry width="50" height="50" relative="1" as="geometry">
            <mxPoint x="170" y="250" as="sourcePoint" />
            <mxPoint x="220" y="200" as="targetPoint" />
          </mxGeometry>
        </mxCell>
        <mxCell id="frBV6I6ec1djIr-fkiNT-46" value="" style="endArrow=classic;startArrow=classic;html=1;rounded=0;exitX=-0.002;exitY=0.402;exitDx=0;exitDy=0;exitPerimeter=0;entryX=1.005;entryY=0.402;entryDx=0;entryDy=0;entryPerimeter=0;" parent="frBV6I6ec1djIr-fkiNT-5" source="frBV6I6ec1djIr-fkiNT-26" target="frBV6I6ec1djIr-fkiNT-9" edge="1">
          <mxGeometry width="50" height="50" relative="1" as="geometry">
            <mxPoint x="170" y="250" as="sourcePoint" />
            <mxPoint x="220" y="200" as="targetPoint" />
          </mxGeometry>
        </mxCell>
        <mxCell id="frBV6I6ec1djIr-fkiNT-47" value="" style="endArrow=classic;startArrow=classic;html=1;rounded=0;exitX=0;exitY=0.5;exitDx=0;exitDy=0;entryX=0.75;entryY=1;entryDx=0;entryDy=0;" parent="frBV6I6ec1djIr-fkiNT-5" source="frBV6I6ec1djIr-fkiNT-17" target="frBV6I6ec1djIr-fkiNT-8" edge="1">
          <mxGeometry width="50" height="50" relative="1" as="geometry">
            <mxPoint x="170" y="250" as="sourcePoint" />
            <mxPoint x="220" y="200" as="targetPoint" />
          </mxGeometry>
        </mxCell>
        <mxCell id="frBV6I6ec1djIr-fkiNT-48" value="" style="endArrow=classic;startArrow=classic;html=1;rounded=0;exitX=1;exitY=0.5;exitDx=0;exitDy=0;" parent="frBV6I6ec1djIr-fkiNT-5" source="frBV6I6ec1djIr-fkiNT-17" target="frBV6I6ec1djIr-fkiNT-36" edge="1">
          <mxGeometry width="50" height="50" relative="1" as="geometry">
            <mxPoint x="170" y="250" as="sourcePoint" />
            <mxPoint x="220" y="200" as="targetPoint" />
          </mxGeometry>
        </mxCell>
        <mxCell id="frBV6I6ec1djIr-fkiNT-39" value="" style="endArrow=classic;startArrow=classic;html=1;rounded=0;exitX=1;exitY=0.5;exitDx=0;exitDy=0;entryX=-0.001;entryY=0.186;entryDx=0;entryDy=0;entryPerimeter=0;" parent="1" source="frBV6I6ec1djIr-fkiNT-1" target="frBV6I6ec1djIr-fkiNT-5" edge="1">
          <mxGeometry width="50" height="50" relative="1" as="geometry">
            <mxPoint x="-470" y="-870" as="sourcePoint" />
            <mxPoint x="-420" y="-920" as="targetPoint" />
          </mxGeometry>
        </mxCell>
        <mxCell id="-Bp-wA4eoz6q-x03ic0_-8" value="&lt;p style=&quot;margin:0px;margin-top:4px;text-align:center;&quot;&gt;&lt;b&gt;Class&lt;/b&gt;&lt;/p&gt;&lt;p style=&quot;margin:0px;margin-top:4px;text-align:center;&quot;&gt;&lt;b&gt;@RestControllerAdvice&lt;/b&gt;&lt;/p&gt;&lt;p style=&quot;margin:0px;margin-top:4px;text-align:center;&quot;&gt;&lt;b&gt;GlobalExceptionHandler&lt;/b&gt;&lt;/p&gt;&lt;p style=&quot;margin:0px;margin-left:4px;&quot;&gt;&lt;br&gt;&lt;/p&gt;&lt;p style=&quot;margin:0px;margin-left:4px;&quot;&gt;&lt;br&gt;&lt;/p&gt;&lt;p style=&quot;margin:0px;margin-left:4px;&quot;&gt;&lt;br&gt;&lt;/p&gt;" style="verticalAlign=top;align=left;overflow=fill;html=1;whiteSpace=wrap;" vertex="1" parent="1">
          <mxGeometry x="-780" y="-360" width="200" height="80" as="geometry" />
        </mxCell>
        <mxCell id="-Bp-wA4eoz6q-x03ic0_-9" value="&lt;p style=&quot;margin:0px;margin-top:4px;text-align:center;&quot;&gt;&lt;b&gt;Class&lt;/b&gt;&lt;/p&gt;&lt;p style=&quot;margin:0px;margin-top:4px;text-align:center;&quot;&gt;&lt;b&gt;@RestController&lt;/b&gt;&lt;/p&gt;&lt;p style=&quot;margin:0px;margin-top:4px;text-align:center;&quot;&gt;&lt;b&gt;MoneyTransferController&lt;/b&gt;&lt;/p&gt;&lt;p style=&quot;margin:0px;margin-left:4px;&quot;&gt;&lt;br&gt;&lt;/p&gt;" style="verticalAlign=top;align=left;overflow=fill;html=1;whiteSpace=wrap;" vertex="1" parent="1">
          <mxGeometry x="-780" y="-450" width="200" height="70" as="geometry" />
        </mxCell>
        <mxCell id="-Bp-wA4eoz6q-x03ic0_-15" value="&lt;p style=&quot;margin:0px;margin-top:4px;text-align:center;&quot;&gt;&lt;b&gt;Class&lt;/b&gt;&lt;/p&gt;&lt;p style=&quot;margin:0px;margin-top:4px;text-align:center;&quot;&gt;&lt;b&gt;ErrorConfirmationException&lt;/b&gt;&lt;/p&gt;" style="verticalAlign=top;align=left;overflow=fill;html=1;whiteSpace=wrap;" vertex="1" parent="1">
          <mxGeometry x="-290" y="470" width="170" height="50" as="geometry" />
        </mxCell>
        <mxCell id="-Bp-wA4eoz6q-x03ic0_-16" value="&lt;p style=&quot;margin:0px;margin-top:4px;text-align:center;&quot;&gt;&lt;b&gt;Class&lt;/b&gt;&lt;/p&gt;&lt;p style=&quot;margin:0px;margin-top:4px;text-align:center;&quot;&gt;&lt;b&gt;ErrorIputDataException&lt;/b&gt;&lt;/p&gt;" style="verticalAlign=top;align=left;overflow=fill;html=1;whiteSpace=wrap;" vertex="1" parent="1">
          <mxGeometry x="-290" y="410" width="170" height="50" as="geometry" />
        </mxCell>
        <mxCell id="-Bp-wA4eoz6q-x03ic0_-17" value="&lt;p style=&quot;margin:0px;margin-top:4px;text-align:center;&quot;&gt;&lt;b&gt;Class&lt;/b&gt;&lt;/p&gt;&lt;p style=&quot;margin:0px;margin-top:4px;text-align:center;&quot;&gt;&lt;b&gt;ErrorTransferException&lt;/b&gt;&lt;/p&gt;" style="verticalAlign=top;align=left;overflow=fill;html=1;whiteSpace=wrap;" vertex="1" parent="1">
          <mxGeometry x="-290" y="350" width="170" height="50" as="geometry" />
        </mxCell>
        <mxCell id="-Bp-wA4eoz6q-x03ic0_-20" value="&lt;p style=&quot;margin:0px;margin-top:4px;text-align:center;&quot;&gt;&lt;b&gt;Class&lt;/b&gt;&lt;/p&gt;&lt;p style=&quot;margin:0px;margin-top:4px;text-align:center;&quot;&gt;&lt;b&gt;@Component&lt;/b&gt;&lt;/p&gt;&lt;p style=&quot;margin:0px;margin-top:4px;text-align:center;&quot;&gt;&lt;b&gt;Mapper&lt;/b&gt;&lt;/p&gt;" style="verticalAlign=top;align=left;overflow=fill;html=1;whiteSpace=wrap;" vertex="1" parent="1">
          <mxGeometry x="-310" y="590" width="170" height="60" as="geometry" />
        </mxCell>
        <mxCell id="-Bp-wA4eoz6q-x03ic0_-25" value="&lt;p style=&quot;margin:0px;margin-top:4px;text-align:center;&quot;&gt;&lt;b&gt;Class&lt;/b&gt;&lt;/p&gt;&lt;p style=&quot;margin:0px;margin-top:4px;text-align:center;&quot;&gt;&lt;b&gt;@Repository&lt;/b&gt;&lt;/p&gt;&lt;p style=&quot;margin:0px;margin-top:4px;text-align:center;&quot;&gt;&lt;b&gt;CardRepositoryImpl&lt;/b&gt;&lt;/p&gt;" style="verticalAlign=top;align=left;overflow=fill;html=1;whiteSpace=wrap;" vertex="1" parent="1">
          <mxGeometry x="-506" y="-340" width="290" height="60" as="geometry" />
        </mxCell>
        <mxCell id="-Bp-wA4eoz6q-x03ic0_-26" value="&lt;p style=&quot;margin:0px;margin-top:4px;text-align:center;&quot;&gt;&lt;i&gt;&amp;lt;&amp;lt;Interface&amp;gt;&amp;gt;&lt;/i&gt;&lt;br&gt;&lt;b&gt;Interface&lt;/b&gt;&lt;/p&gt;&lt;p style=&quot;margin:0px;margin-top:4px;text-align:center;&quot;&gt;&lt;b&gt;CardRepositjry&lt;/b&gt;&lt;/p&gt;&lt;p style=&quot;margin:0px;margin-left:4px;&quot;&gt;&lt;br&gt;&lt;/p&gt;&lt;hr size=&quot;1&quot; style=&quot;border-style:solid;&quot;&gt;&lt;p style=&quot;margin:0px;margin-left:4px;&quot;&gt;save(CardEntity): CardEntity&lt;/p&gt;&lt;p style=&quot;margin:0px;margin-left:4px;&quot;&gt;findByCardNumber(String): Optional&amp;lt;CardEntity&amp;gt;&lt;/p&gt;&lt;p style=&quot;margin:0px;margin-left:4px;&quot;&gt;findByCardEntity(CardEntity)&lt;span style=&quot;background-color: transparent; color: light-dark(rgb(0, 0, 0), rgb(255, 255, 255));&quot;&gt;: Optional&amp;lt;CardEntity&amp;gt;&lt;/span&gt;&lt;/p&gt;&lt;p style=&quot;margin:0px;margin-left:4px;&quot;&gt;&lt;span style=&quot;background-color: transparent; color: light-dark(rgb(0, 0, 0), rgb(255, 255, 255));&quot;&gt;updateBalance(CardEntity)&lt;/span&gt;&lt;span style=&quot;background-color: transparent; color: light-dark(rgb(0, 0, 0), rgb(255, 255, 255));&quot;&gt;: Optional&amp;lt;CardEntity&amp;gt;&lt;/span&gt;&lt;/p&gt;&lt;p style=&quot;margin:0px;margin-left:4px;&quot;&gt;&lt;span style=&quot;background-color: transparent; color: light-dark(rgb(0, 0, 0), rgb(255, 255, 255));&quot;&gt;delete(CardEntity)&lt;/span&gt;&lt;span style=&quot;background-color: transparent; color: light-dark(rgb(0, 0, 0), rgb(255, 255, 255));&quot;&gt;: Optional&amp;lt;CardEntity&amp;gt;&lt;/span&gt;&lt;/p&gt;&lt;p style=&quot;margin:0px;margin-left:4px;&quot;&gt;&lt;span style=&quot;background-color: transparent; color: light-dark(rgb(0, 0, 0), rgb(255, 255, 255));&quot;&gt;existsByCardNumber(String): boolean&lt;/span&gt;&lt;/p&gt;" style="verticalAlign=top;align=left;overflow=fill;html=1;whiteSpace=wrap;" vertex="1" parent="1">
          <mxGeometry x="-506" y="-550" width="290" height="180" as="geometry" />
        </mxCell>
        <mxCell id="-Bp-wA4eoz6q-x03ic0_-27" value="&lt;p style=&quot;margin:0px;margin-top:4px;text-align:center;&quot;&gt;&lt;b&gt;Class&lt;/b&gt;&lt;/p&gt;&lt;p style=&quot;margin:0px;margin-top:4px;text-align:center;&quot;&gt;&lt;b&gt;@Service&lt;/b&gt;&lt;/p&gt;&lt;p style=&quot;margin:0px;margin-top:4px;text-align:center;&quot;&gt;&lt;b&gt;MoneyTransferService&lt;/b&gt;&lt;/p&gt;" style="verticalAlign=top;align=left;overflow=fill;html=1;whiteSpace=wrap;" vertex="1" parent="1">
          <mxGeometry x="-780" y="-240" width="200" height="70" as="geometry" />
        </mxCell>
        <mxCell id="-Bp-wA4eoz6q-x03ic0_-28" value="&lt;p style=&quot;margin:0px;margin-top:4px;text-align:center;&quot;&gt;&lt;i&gt;&amp;lt;&amp;lt;Interface&amp;gt;&amp;gt;&lt;/i&gt;&lt;br&gt;&lt;b&gt;Interface&lt;/b&gt;&lt;/p&gt;&lt;p style=&quot;margin:0px;margin-top:4px;text-align:center;&quot;&gt;&lt;b&gt;CardStorage&lt;/b&gt;&lt;/p&gt;&lt;p style=&quot;margin:0px;margin-left:4px;&quot;&gt;&lt;br&gt;&lt;/p&gt;&lt;hr size=&quot;1&quot; style=&quot;border-style:solid;&quot;&gt;&lt;p style=&quot;margin:0px;margin-left:4px;&quot;&gt;getCardList(): Map&amp;lt;String, CardEntityStorage&amp;gt;&lt;/p&gt;" style="verticalAlign=top;align=left;overflow=fill;html=1;whiteSpace=wrap;" vertex="1" parent="1">
          <mxGeometry x="-506" y="-250" width="290" height="110" as="geometry" />
        </mxCell>
        <mxCell id="-Bp-wA4eoz6q-x03ic0_-29" value="&lt;p style=&quot;margin:0px;margin-top:4px;text-align:center;&quot;&gt;&lt;b&gt;Class&lt;/b&gt;&lt;/p&gt;&lt;p style=&quot;margin:0px;margin-top:4px;text-align:center;&quot;&gt;&lt;b&gt;CardStorageImpl&lt;/b&gt;&lt;/p&gt;" style="verticalAlign=top;align=left;overflow=fill;html=1;whiteSpace=wrap;" vertex="1" parent="1">
          <mxGeometry x="-506" y="-120" width="290" height="50" as="geometry" />
        </mxCell>
        <mxCell id="-Bp-wA4eoz6q-x03ic0_-30" value="&lt;p style=&quot;margin:0px;margin-top:4px;text-align:center;&quot;&gt;&lt;b&gt;Class&lt;/b&gt;&lt;/p&gt;&lt;p style=&quot;margin:0px;margin-top:4px;text-align:center;&quot;&gt;&lt;b&gt;@SpringBootApplication&lt;/b&gt;&lt;/p&gt;&lt;p style=&quot;margin:0px;margin-top:4px;text-align:center;&quot;&gt;&lt;b&gt;MoneyTransferServiceApplication&lt;/b&gt;&lt;/p&gt;" style="verticalAlign=top;align=left;overflow=fill;html=1;whiteSpace=wrap;" vertex="1" parent="1">
          <mxGeometry x="-780" y="-600" width="210" height="70" as="geometry" />
        </mxCell>
        <mxCell id="-Bp-wA4eoz6q-x03ic0_-31" value="" style="swimlane;startSize=0;" vertex="1" parent="1">
          <mxGeometry x="-800" y="-500" width="240" height="230" as="geometry" />
        </mxCell>
        <mxCell id="-Bp-wA4eoz6q-x03ic0_-41" value="&lt;b&gt;&lt;font style=&quot;font-size: 14px;&quot;&gt;Controller&lt;/font&gt;&lt;/b&gt;" style="text;html=1;align=center;verticalAlign=middle;whiteSpace=wrap;rounded=0;" vertex="1" parent="-Bp-wA4eoz6q-x03ic0_-31">
          <mxGeometry x="20" y="10" width="60" height="30" as="geometry" />
        </mxCell>
        <mxCell id="-Bp-wA4eoz6q-x03ic0_-32" value="" style="swimlane;startSize=0;" vertex="1" parent="1">
          <mxGeometry x="-530" y="-600" width="340" height="550" as="geometry" />
        </mxCell>
        <mxCell id="-Bp-wA4eoz6q-x03ic0_-40" value="&lt;font style=&quot;font-size: 14px;&quot;&gt;&lt;b&gt;Repository&lt;/b&gt;&lt;/font&gt;" style="text;html=1;align=center;verticalAlign=middle;whiteSpace=wrap;rounded=0;" vertex="1" parent="-Bp-wA4eoz6q-x03ic0_-32">
          <mxGeometry x="24" y="10" width="60" height="30" as="geometry" />
        </mxCell>
        <mxCell id="-Bp-wA4eoz6q-x03ic0_-33" value="" style="swimlane;startSize=0;" vertex="1" parent="1">
          <mxGeometry x="-800" y="20" width="430" height="760" as="geometry" />
        </mxCell>
        <mxCell id="-Bp-wA4eoz6q-x03ic0_-19" value="&lt;p style=&quot;margin:0px;margin-top:4px;text-align:center;&quot;&gt;&lt;b&gt;Class&lt;/b&gt;&lt;/p&gt;&lt;p style=&quot;margin:0px;margin-top:4px;text-align:center;&quot;&gt;&lt;b&gt;OperationLoggerImpl&lt;/b&gt;&lt;/p&gt;" style="verticalAlign=top;align=left;overflow=fill;html=1;whiteSpace=wrap;" vertex="1" parent="-Bp-wA4eoz6q-x03ic0_-33">
          <mxGeometry x="20" y="690" width="170" height="50" as="geometry" />
        </mxCell>
        <mxCell id="-Bp-wA4eoz6q-x03ic0_-18" value="&lt;p style=&quot;margin:0px;margin-top:4px;text-align:center;&quot;&gt;&lt;i&gt;&amp;lt;&amp;lt;Interface&amp;gt;&amp;gt;&lt;/i&gt;&lt;br&gt;&lt;b&gt;Interface&lt;/b&gt;&lt;/p&gt;&lt;p style=&quot;margin:0px;margin-top:4px;text-align:center;&quot;&gt;&lt;b&gt;OperationLogger&lt;/b&gt;&lt;/p&gt;&lt;p style=&quot;margin:0px;margin-left:4px;&quot;&gt;&lt;br&gt;&lt;/p&gt;&lt;hr size=&quot;1&quot; style=&quot;border-style:solid;&quot;&gt;&lt;p style=&quot;margin:0px;margin-left:4px;&quot;&gt;logWrite(OperationInfo) : void&lt;/p&gt;" style="verticalAlign=top;align=left;overflow=fill;html=1;whiteSpace=wrap;" vertex="1" parent="-Bp-wA4eoz6q-x03ic0_-33">
          <mxGeometry x="20" y="560" width="170" height="110" as="geometry" />
        </mxCell>
        <mxCell id="-Bp-wA4eoz6q-x03ic0_-22" value="&lt;p style=&quot;margin:0px;margin-top:4px;text-align:center;&quot;&gt;&lt;b&gt;Class&lt;/b&gt;&lt;/p&gt;&lt;p style=&quot;margin:0px;margin-top:4px;text-align:center;&quot;&gt;&lt;b&gt;OperationStorageImpl&lt;/b&gt;&lt;/p&gt;" style="verticalAlign=top;align=left;overflow=fill;html=1;whiteSpace=wrap;" vertex="1" parent="-Bp-wA4eoz6q-x03ic0_-33">
          <mxGeometry x="20" y="500" width="390" height="50" as="geometry" />
        </mxCell>
        <mxCell id="-Bp-wA4eoz6q-x03ic0_-24" value="&lt;p style=&quot;margin:0px;margin-top:4px;text-align:center;&quot;&gt;&lt;i&gt;&amp;lt;&amp;lt;Interface&amp;gt;&amp;gt;&lt;/i&gt;&lt;br&gt;&lt;b&gt;Interface&lt;/b&gt;&lt;/p&gt;&lt;p style=&quot;margin:0px;margin-top:4px;text-align:center;&quot;&gt;&lt;b&gt;OperationStorage&lt;/b&gt;&lt;/p&gt;&lt;p style=&quot;margin:0px;margin-left:4px;&quot;&gt;&lt;br&gt;&lt;/p&gt;&lt;hr size=&quot;1&quot; style=&quot;border-style:solid;&quot;&gt;&lt;p style=&quot;margin:0px;margin-left:4px;&quot;&gt;&lt;span style=&quot;background-color: transparent; color: light-dark(rgb(0, 0, 0), rgb(255, 255, 255));&quot;&gt;getMap(): Map&amp;lt;Long, OperationEntity&amp;gt;&lt;/span&gt;&lt;/p&gt;&lt;p style=&quot;margin:0px;margin-left:4px;&quot;&gt;&lt;span style=&quot;background-color: transparent; color: light-dark(rgb(0, 0, 0), rgb(255, 255, 255));&quot;&gt;getId(): long&lt;/span&gt;&lt;/p&gt;&lt;p style=&quot;margin:0px;margin-left:4px;&quot;&gt;&lt;span style=&quot;background-color: transparent; color: light-dark(rgb(0, 0, 0), rgb(255, 255, 255));&quot;&gt;incrementId(): long&amp;nbsp;&lt;/span&gt;&lt;/p&gt;" style="verticalAlign=top;align=left;overflow=fill;html=1;whiteSpace=wrap;" vertex="1" parent="-Bp-wA4eoz6q-x03ic0_-33">
          <mxGeometry x="20" y="350" width="390" height="130" as="geometry" />
        </mxCell>
        <mxCell id="-Bp-wA4eoz6q-x03ic0_-21" value="&lt;p style=&quot;margin:0px;margin-top:4px;text-align:center;&quot;&gt;&lt;b&gt;Class&lt;/b&gt;&lt;/p&gt;&lt;p style=&quot;margin:0px;margin-top:4px;text-align:center;&quot;&gt;&lt;b&gt;@Component&lt;/b&gt;&lt;/p&gt;&lt;p style=&quot;margin:0px;margin-top:4px;text-align:center;&quot;&gt;&lt;b&gt;OperationImpl&lt;/b&gt;&lt;/p&gt;" style="verticalAlign=top;align=left;overflow=fill;html=1;whiteSpace=wrap;" vertex="1" parent="-Bp-wA4eoz6q-x03ic0_-33">
          <mxGeometry x="20" y="270" width="390" height="60" as="geometry" />
        </mxCell>
        <mxCell id="-Bp-wA4eoz6q-x03ic0_-23" value="&lt;p style=&quot;margin:0px;margin-top:4px;text-align:center;&quot;&gt;&lt;i&gt;&amp;lt;&amp;lt;Interface&amp;gt;&amp;gt;&lt;/i&gt;&lt;br&gt;&lt;b&gt;Interface&lt;/b&gt;&lt;/p&gt;&lt;p style=&quot;margin:0px;margin-top:4px;text-align:center;&quot;&gt;&lt;b&gt;Operation&lt;/b&gt;&lt;/p&gt;&lt;p style=&quot;margin:0px;margin-left:4px;&quot;&gt;&lt;br&gt;&lt;/p&gt;&lt;hr size=&quot;1&quot; style=&quot;border-style:solid;&quot;&gt;&lt;p style=&quot;margin:0px;margin-left:4px;&quot;&gt;add(OperationEntity):OperationId&lt;/p&gt;&lt;p style=&quot;margin:0px;margin-left:4px;&quot;&gt;getOperationById(OperationId): Optional&amp;lt;OperationEntity&amp;gt;&lt;/p&gt;&lt;p style=&quot;margin:0px;margin-left:4px;&quot;&gt;getStatus(&lt;span style=&quot;background-color: transparent; color: light-dark(rgb(0, 0, 0), rgb(255, 255, 255));&quot;&gt;OperationId): StatusOperation&lt;/span&gt;&lt;/p&gt;&lt;p style=&quot;margin:0px;margin-left:4px;&quot;&gt;&lt;span style=&quot;background-color: transparent; color: light-dark(rgb(0, 0, 0), rgb(255, 255, 255));&quot;&gt;getStatus(Long):&amp;nbsp;&lt;/span&gt;&lt;span style=&quot;background-color: transparent; color: light-dark(rgb(0, 0, 0), rgb(255, 255, 255));&quot;&gt;StatusOperation&lt;/span&gt;&lt;/p&gt;&lt;p style=&quot;margin:0px;margin-left:4px;&quot;&gt;&lt;span style=&quot;background-color: transparent; color: light-dark(rgb(0, 0, 0), rgb(255, 255, 255));&quot;&gt;setStatus(OperationId, StatusOperation): boolen&lt;/span&gt;&lt;/p&gt;&lt;p style=&quot;margin:0px;margin-left:4px;&quot;&gt;&lt;span style=&quot;background-color: transparent; color: light-dark(rgb(0, 0, 0), rgb(255, 255, 255));&quot;&gt;removeById(OperationId):&amp;nbsp;&lt;/span&gt;&lt;span style=&quot;background-color: transparent; color: light-dark(rgb(0, 0, 0), rgb(255, 255, 255));&quot;&gt;Optional&amp;lt;OperationEntity&amp;gt;&lt;/span&gt;&lt;/p&gt;&lt;p style=&quot;margin:0px;margin-left:4px;&quot;&gt;&lt;span style=&quot;background-color: transparent; color: light-dark(rgb(0, 0, 0), rgb(255, 255, 255));&quot;&gt;updateById(OperationId, OperationEntity):&amp;nbsp;&lt;/span&gt;&lt;span style=&quot;background-color: transparent; color: light-dark(rgb(0, 0, 0), rgb(255, 255, 255));&quot;&gt;Optional&amp;lt;OperationEntity&amp;gt;&lt;/span&gt;&lt;span style=&quot;background-color: transparent; color: light-dark(rgb(0, 0, 0), rgb(255, 255, 255));&quot;&gt;&amp;nbsp;&lt;/span&gt;&lt;/p&gt;" style="verticalAlign=top;align=left;overflow=fill;html=1;whiteSpace=wrap;" vertex="1" parent="-Bp-wA4eoz6q-x03ic0_-33">
          <mxGeometry x="20" y="50" width="390" height="190" as="geometry" />
        </mxCell>
        <mxCell id="-Bp-wA4eoz6q-x03ic0_-39" value="&lt;font style=&quot;font-size: 14px;&quot;&gt;&lt;b&gt;Operation&lt;/b&gt;&lt;/font&gt;" style="text;html=1;align=center;verticalAlign=middle;whiteSpace=wrap;rounded=0;" vertex="1" parent="-Bp-wA4eoz6q-x03ic0_-33">
          <mxGeometry x="30" y="10" width="60" height="30" as="geometry" />
        </mxCell>
        <mxCell id="-Bp-wA4eoz6q-x03ic0_-34" value="" style="swimlane;startSize=0;" vertex="1" parent="1">
          <mxGeometry x="-310" y="320" width="210" height="220" as="geometry" />
        </mxCell>
        <mxCell id="-Bp-wA4eoz6q-x03ic0_-36" value="&lt;b&gt;&lt;font style=&quot;font-size: 14px;&quot;&gt;Exception&lt;/font&gt;&lt;/b&gt;" style="text;html=1;align=center;verticalAlign=middle;whiteSpace=wrap;rounded=0;" vertex="1" parent="-Bp-wA4eoz6q-x03ic0_-34">
          <mxGeometry x="35" width="60" height="30" as="geometry" />
        </mxCell>
        <mxCell id="-Bp-wA4eoz6q-x03ic0_-35" value="" style="swimlane;startSize=0;" vertex="1" parent="1">
          <mxGeometry x="-310" y="20" width="240" height="280" as="geometry" />
        </mxCell>
        <mxCell id="-Bp-wA4eoz6q-x03ic0_-14" value="&lt;p style=&quot;margin:0px;margin-top:4px;text-align:center;&quot;&gt;&lt;b&gt;Class&lt;/b&gt;&lt;/p&gt;&lt;p style=&quot;margin:0px;margin-top:4px;text-align:center;&quot;&gt;&lt;b&gt;@Component&lt;/b&gt;&lt;/p&gt;&lt;p style=&quot;margin:0px;margin-left:4px;&quot;&gt;&lt;b&gt;&amp;nbsp; &amp;nbsp; &amp;nbsp; &amp;nbsp; &amp;nbsp; CurrencyConverterImpl&lt;/b&gt;&lt;/p&gt;" style="verticalAlign=top;align=left;overflow=fill;html=1;whiteSpace=wrap;" vertex="1" parent="-Bp-wA4eoz6q-x03ic0_-35">
          <mxGeometry x="20" y="200" width="200" height="60" as="geometry" />
        </mxCell>
        <mxCell id="kc0-kyQEWpfPFkMr28Nt-5" value="&lt;p style=&quot;margin:0px;margin-top:4px;text-align:center;&quot;&gt;&lt;i&gt;&amp;lt;&amp;lt;Interface&amp;gt;&amp;gt;&lt;/i&gt;&lt;br&gt;&lt;b&gt;Interface&lt;/b&gt;&lt;/p&gt;&lt;p style=&quot;margin:0px;margin-top:4px;text-align:center;&quot;&gt;&lt;b&gt;CurrencyConverter&lt;/b&gt;&lt;/p&gt;&lt;p style=&quot;margin:0px;margin-left:4px;&quot;&gt;&lt;br&gt;&lt;/p&gt;&lt;hr size=&quot;1&quot; style=&quot;border-style:solid;&quot;&gt;&lt;p style=&quot;margin:0px;margin-left:4px;&quot;&gt;convertCurrency(Double amount, String fromCurrency, String ToCurrency) : Optional&amp;lt;Double&amp;gt;&lt;/p&gt;" style="verticalAlign=top;align=left;overflow=fill;html=1;whiteSpace=wrap;" parent="-Bp-wA4eoz6q-x03ic0_-35" vertex="1">
          <mxGeometry x="20" y="50" width="200" height="140" as="geometry" />
        </mxCell>
        <mxCell id="-Bp-wA4eoz6q-x03ic0_-37" value="&lt;b&gt;&lt;font style=&quot;font-size: 14px;&quot;&gt;Converter&lt;/font&gt;&lt;/b&gt;" style="text;html=1;align=center;verticalAlign=middle;whiteSpace=wrap;rounded=0;" vertex="1" parent="-Bp-wA4eoz6q-x03ic0_-35">
          <mxGeometry x="20" y="10" width="60" height="30" as="geometry" />
        </mxCell>
      </root>
    </mxGraphModel>
  </diagram>
</mxfile>
